<mxfile host="app.diagrams.net" modified="2021-09-12T09:48:23.119Z" agent="5.0 (Windows NT 10.0; Win64; x64) AppleWebKit/537.36 (KHTML, like Gecko) Chrome/92.0.4515.159 Safari/537.36" etag="WEl1UyN0drX6EaHQsZrx" version="14.7.6" type="github">
  <diagram id="3og0gf8gtnWCEk_-Y0HO" name="Page-1">
    <mxGraphModel dx="1182" dy="1336" grid="0" gridSize="10" guides="1" tooltips="1" connect="1" arrows="1" fold="1" page="0" pageScale="1" pageWidth="850" pageHeight="1100" math="0" shadow="0">
      <root>
        <mxCell id="0" />
        <mxCell id="1" parent="0" />
        <mxCell id="ZslXiAwdW-3EuPROBi18-4" value="&lt;b&gt;&lt;font color=&quot;#660000&quot;&gt;Test and Dev ESXi&lt;/font&gt;&lt;/b&gt;" style="text;html=1;strokeColor=none;fillColor=none;align=center;verticalAlign=middle;whiteSpace=wrap;rounded=0;" parent="1" vertex="1">
          <mxGeometry x="1729" y="370" width="125" height="12" as="geometry" />
        </mxCell>
        <mxCell id="ZslXiAwdW-3EuPROBi18-5" value="&lt;b&gt;&lt;font color=&quot;#660000&quot;&gt;Citrix ESXi&lt;/font&gt;&lt;/b&gt;" style="text;html=1;strokeColor=none;fillColor=none;align=center;verticalAlign=middle;whiteSpace=wrap;rounded=0;" parent="1" vertex="1">
          <mxGeometry x="2161" y="350" width="125" height="12" as="geometry" />
        </mxCell>
        <mxCell id="ZslXiAwdW-3EuPROBi18-6" value="&lt;b&gt;&lt;font color=&quot;#660000&quot;&gt;Production ESXi&lt;/font&gt;&lt;/b&gt;" style="text;html=1;strokeColor=none;fillColor=none;align=center;verticalAlign=middle;whiteSpace=wrap;rounded=0;" parent="1" vertex="1">
          <mxGeometry x="1952" y="350" width="125" height="12" as="geometry" />
        </mxCell>
        <mxCell id="ZslXiAwdW-3EuPROBi18-9" value="" style="aspect=fixed;pointerEvents=1;shadow=0;dashed=0;html=1;strokeColor=none;labelPosition=center;verticalLabelPosition=bottom;verticalAlign=top;align=center;fillColor=#00188D;shape=mxgraph.azure.virtual_machine_feature" parent="1" vertex="1">
          <mxGeometry x="2275.11" y="290" width="28.89" height="26" as="geometry" />
        </mxCell>
        <mxCell id="ZslXiAwdW-3EuPROBi18-10" value="" style="aspect=fixed;pointerEvents=1;shadow=0;dashed=0;html=1;strokeColor=none;labelPosition=center;verticalLabelPosition=bottom;verticalAlign=top;align=center;fillColor=#00188D;shape=mxgraph.azure.virtual_machine_feature" parent="1" vertex="1">
          <mxGeometry x="2183" y="290" width="28.89" height="26" as="geometry" />
        </mxCell>
        <mxCell id="ZslXiAwdW-3EuPROBi18-11" value="" style="aspect=fixed;pointerEvents=1;shadow=0;dashed=0;html=1;strokeColor=none;labelPosition=center;verticalLabelPosition=bottom;verticalAlign=top;align=center;fillColor=#00188D;shape=mxgraph.azure.virtual_machine_feature" parent="1" vertex="1">
          <mxGeometry x="2146" y="290" width="28.89" height="26" as="geometry" />
        </mxCell>
        <mxCell id="ZslXiAwdW-3EuPROBi18-12" value="" style="aspect=fixed;pointerEvents=1;shadow=0;dashed=0;html=1;strokeColor=none;labelPosition=center;verticalLabelPosition=bottom;verticalAlign=top;align=center;fillColor=#00188D;shape=mxgraph.azure.virtual_machine_feature" parent="1" vertex="1">
          <mxGeometry x="2066" y="290" width="28.89" height="26" as="geometry" />
        </mxCell>
        <mxCell id="ZslXiAwdW-3EuPROBi18-13" value="" style="aspect=fixed;pointerEvents=1;shadow=0;dashed=0;html=1;strokeColor=none;labelPosition=center;verticalLabelPosition=bottom;verticalAlign=top;align=center;fillColor=#00188D;shape=mxgraph.azure.virtual_machine_feature" parent="1" vertex="1">
          <mxGeometry x="1970" y="292" width="28.89" height="26" as="geometry" />
        </mxCell>
        <mxCell id="ZslXiAwdW-3EuPROBi18-14" value="" style="aspect=fixed;pointerEvents=1;shadow=0;dashed=0;html=1;strokeColor=none;labelPosition=center;verticalLabelPosition=bottom;verticalAlign=top;align=center;fillColor=#00188D;shape=mxgraph.azure.virtual_machine_feature" parent="1" vertex="1">
          <mxGeometry x="1932.11" y="292" width="28.89" height="26" as="geometry" />
        </mxCell>
        <mxCell id="ZslXiAwdW-3EuPROBi18-15" value="" style="aspect=fixed;pointerEvents=1;shadow=0;dashed=0;html=1;strokeColor=none;labelPosition=center;verticalLabelPosition=bottom;verticalAlign=top;align=center;fillColor=#00188D;shape=mxgraph.azure.virtual_machine_feature" parent="1" vertex="1">
          <mxGeometry x="1850" y="290" width="28.89" height="26" as="geometry" />
        </mxCell>
        <mxCell id="ZslXiAwdW-3EuPROBi18-16" value="" style="aspect=fixed;pointerEvents=1;shadow=0;dashed=0;html=1;strokeColor=none;labelPosition=center;verticalLabelPosition=bottom;verticalAlign=top;align=center;fillColor=#00188D;shape=mxgraph.azure.virtual_machine_feature" parent="1" vertex="1">
          <mxGeometry x="1761" y="290" width="28.89" height="26" as="geometry" />
        </mxCell>
        <mxCell id="ZslXiAwdW-3EuPROBi18-17" value="" style="aspect=fixed;pointerEvents=1;shadow=0;dashed=0;html=1;strokeColor=none;labelPosition=center;verticalLabelPosition=bottom;verticalAlign=top;align=center;fillColor=#00188D;shape=mxgraph.azure.virtual_machine_feature" parent="1" vertex="1">
          <mxGeometry x="1721" y="290" width="28.89" height="26" as="geometry" />
        </mxCell>
        <mxCell id="ZslXiAwdW-3EuPROBi18-20" value="total 50 Virtual Servers, out of 17 VS will be decomissioned" style="text;html=1;strokeColor=none;fillColor=none;align=center;verticalAlign=middle;whiteSpace=wrap;rounded=0;" parent="1" vertex="1">
          <mxGeometry x="1720.39" y="337" width="139" height="12" as="geometry" />
        </mxCell>
        <mxCell id="ZslXiAwdW-3EuPROBi18-21" value="158 Virtual Servers" style="text;html=1;strokeColor=none;fillColor=none;align=center;verticalAlign=middle;whiteSpace=wrap;rounded=0;" parent="1" vertex="1">
          <mxGeometry x="1942" y="325" width="139" height="12" as="geometry" />
        </mxCell>
        <mxCell id="ZslXiAwdW-3EuPROBi18-22" value="38 Virtual Servers" style="text;html=1;strokeColor=none;fillColor=none;align=center;verticalAlign=middle;whiteSpace=wrap;rounded=0;" parent="1" vertex="1">
          <mxGeometry x="2154" y="325" width="139" height="12" as="geometry" />
        </mxCell>
        <mxCell id="ZslXiAwdW-3EuPROBi18-75" style="edgeStyle=orthogonalEdgeStyle;rounded=0;orthogonalLoop=1;jettySize=auto;html=1;entryX=0.15;entryY=1.111;entryDx=0;entryDy=0;entryPerimeter=0;startArrow=classic;startFill=1;endArrow=classic;endFill=1;" parent="1" source="ZslXiAwdW-3EuPROBi18-23" target="ZslXiAwdW-3EuPROBi18-41" edge="1">
          <mxGeometry relative="1" as="geometry" />
        </mxCell>
        <mxCell id="ZslXiAwdW-3EuPROBi18-23" value="" style="rounded=0;whiteSpace=wrap;html=1;strokeColor=#663300;fillColor=none;" parent="1" vertex="1">
          <mxGeometry x="1712" y="278" width="175" height="112" as="geometry" />
        </mxCell>
        <mxCell id="ZslXiAwdW-3EuPROBi18-76" style="edgeStyle=orthogonalEdgeStyle;rounded=0;orthogonalLoop=1;jettySize=auto;html=1;entryX=0.5;entryY=1;entryDx=0;entryDy=0;startArrow=classic;startFill=1;endArrow=classic;endFill=1;" parent="1" source="ZslXiAwdW-3EuPROBi18-24" target="ZslXiAwdW-3EuPROBi18-41" edge="1">
          <mxGeometry relative="1" as="geometry" />
        </mxCell>
        <mxCell id="ZslXiAwdW-3EuPROBi18-24" value="" style="rounded=0;whiteSpace=wrap;html=1;strokeColor=#663300;fillColor=none;" parent="1" vertex="1">
          <mxGeometry x="1924" y="274" width="175" height="92" as="geometry" />
        </mxCell>
        <mxCell id="ZslXiAwdW-3EuPROBi18-77" style="edgeStyle=orthogonalEdgeStyle;rounded=0;orthogonalLoop=1;jettySize=auto;html=1;entryX=0.852;entryY=0.952;entryDx=0;entryDy=0;entryPerimeter=0;startArrow=classic;startFill=1;endArrow=classic;endFill=1;" parent="1" source="ZslXiAwdW-3EuPROBi18-25" target="ZslXiAwdW-3EuPROBi18-41" edge="1">
          <mxGeometry relative="1" as="geometry" />
        </mxCell>
        <mxCell id="ZslXiAwdW-3EuPROBi18-25" value="" style="rounded=0;whiteSpace=wrap;html=1;strokeColor=#663300;fillColor=none;" parent="1" vertex="1">
          <mxGeometry x="2138" y="274" width="175" height="92" as="geometry" />
        </mxCell>
        <mxCell id="ZslXiAwdW-3EuPROBi18-78" style="edgeStyle=orthogonalEdgeStyle;rounded=0;orthogonalLoop=1;jettySize=auto;html=1;entryX=0.5;entryY=1;entryDx=0;entryDy=0;startArrow=classic;startFill=1;endArrow=classic;endFill=1;" parent="1" source="ZslXiAwdW-3EuPROBi18-26" target="ZslXiAwdW-3EuPROBi18-23" edge="1">
          <mxGeometry relative="1" as="geometry" />
        </mxCell>
        <mxCell id="ZslXiAwdW-3EuPROBi18-26" value="" style="rounded=1;whiteSpace=wrap;html=1;strokeColor=#663300;fillColor=none;" parent="1" vertex="1">
          <mxGeometry x="1712" y="409" width="174" height="28" as="geometry" />
        </mxCell>
        <mxCell id="ZslXiAwdW-3EuPROBi18-79" style="edgeStyle=orthogonalEdgeStyle;rounded=0;orthogonalLoop=1;jettySize=auto;html=1;entryX=0.5;entryY=1;entryDx=0;entryDy=0;startArrow=classic;startFill=1;endArrow=classic;endFill=1;" parent="1" source="ZslXiAwdW-3EuPROBi18-27" target="ZslXiAwdW-3EuPROBi18-24" edge="1">
          <mxGeometry relative="1" as="geometry" />
        </mxCell>
        <mxCell id="ZslXiAwdW-3EuPROBi18-27" value="" style="rounded=1;whiteSpace=wrap;html=1;strokeColor=#663300;fillColor=none;" parent="1" vertex="1">
          <mxGeometry x="1924.5" y="397" width="174" height="28" as="geometry" />
        </mxCell>
        <mxCell id="ZslXiAwdW-3EuPROBi18-80" style="edgeStyle=orthogonalEdgeStyle;rounded=0;orthogonalLoop=1;jettySize=auto;html=1;entryX=0.5;entryY=1;entryDx=0;entryDy=0;startArrow=classic;startFill=1;endArrow=classic;endFill=1;" parent="1" source="ZslXiAwdW-3EuPROBi18-28" target="ZslXiAwdW-3EuPROBi18-25" edge="1">
          <mxGeometry relative="1" as="geometry" />
        </mxCell>
        <mxCell id="ZslXiAwdW-3EuPROBi18-28" value="" style="rounded=1;whiteSpace=wrap;html=1;strokeColor=#663300;fillColor=none;" parent="1" vertex="1">
          <mxGeometry x="2139" y="397" width="174" height="28" as="geometry" />
        </mxCell>
        <mxCell id="ZslXiAwdW-3EuPROBi18-82" style="edgeStyle=orthogonalEdgeStyle;rounded=0;orthogonalLoop=1;jettySize=auto;html=1;entryX=0.5;entryY=1;entryDx=0;entryDy=0;startArrow=classic;startFill=1;endArrow=classic;endFill=1;" parent="1" source="ZslXiAwdW-3EuPROBi18-29" target="ZslXiAwdW-3EuPROBi18-26" edge="1">
          <mxGeometry relative="1" as="geometry" />
        </mxCell>
        <mxCell id="ZslXiAwdW-3EuPROBi18-29" value="" style="shape=cylinder3;whiteSpace=wrap;html=1;boundedLbl=1;backgroundOutline=1;size=15;strokeColor=#663300;fillColor=none;" parent="1" vertex="1">
          <mxGeometry x="1753" y="466" width="92" height="58" as="geometry" />
        </mxCell>
        <mxCell id="ZslXiAwdW-3EuPROBi18-83" style="edgeStyle=orthogonalEdgeStyle;rounded=0;orthogonalLoop=1;jettySize=auto;html=1;entryX=0.5;entryY=1;entryDx=0;entryDy=0;startArrow=classic;startFill=1;endArrow=classic;endFill=1;" parent="1" source="ZslXiAwdW-3EuPROBi18-30" target="ZslXiAwdW-3EuPROBi18-27" edge="1">
          <mxGeometry relative="1" as="geometry" />
        </mxCell>
        <mxCell id="ZslXiAwdW-3EuPROBi18-30" value="" style="shape=cylinder3;whiteSpace=wrap;html=1;boundedLbl=1;backgroundOutline=1;size=15;strokeColor=#663300;fillColor=none;" parent="1" vertex="1">
          <mxGeometry x="1906.89" y="475" width="74.11" height="58" as="geometry" />
        </mxCell>
        <mxCell id="ZslXiAwdW-3EuPROBi18-86" style="edgeStyle=orthogonalEdgeStyle;rounded=0;orthogonalLoop=1;jettySize=auto;html=1;startArrow=classic;startFill=1;endArrow=classic;endFill=1;" parent="1" source="ZslXiAwdW-3EuPROBi18-31" edge="1">
          <mxGeometry relative="1" as="geometry">
            <mxPoint x="2213" y="426" as="targetPoint" />
          </mxGeometry>
        </mxCell>
        <mxCell id="ZslXiAwdW-3EuPROBi18-31" value="" style="shape=cylinder3;whiteSpace=wrap;html=1;boundedLbl=1;backgroundOutline=1;size=15;strokeColor=#663300;fillColor=none;" parent="1" vertex="1">
          <mxGeometry x="2166.46" y="459" width="92" height="58" as="geometry" />
        </mxCell>
        <mxCell id="ZslXiAwdW-3EuPROBi18-32" value="Test &amp;amp; Dev SAN Switch" style="text;html=1;strokeColor=none;fillColor=none;align=center;verticalAlign=middle;whiteSpace=wrap;rounded=0;" parent="1" vertex="1">
          <mxGeometry x="1702.5000000000002" y="417" width="178" height="12" as="geometry" />
        </mxCell>
        <mxCell id="ZslXiAwdW-3EuPROBi18-33" value="Production SAN Switch" style="text;html=1;strokeColor=none;fillColor=none;align=center;verticalAlign=middle;whiteSpace=wrap;rounded=0;" parent="1" vertex="1">
          <mxGeometry x="1920.5" y="405" width="178" height="12" as="geometry" />
        </mxCell>
        <mxCell id="ZslXiAwdW-3EuPROBi18-34" value="Citrix SAN Switch" style="text;html=1;strokeColor=none;fillColor=none;align=center;verticalAlign=middle;whiteSpace=wrap;rounded=0;" parent="1" vertex="1">
          <mxGeometry x="2139" y="405" width="178" height="12" as="geometry" />
        </mxCell>
        <mxCell id="ZslXiAwdW-3EuPROBi18-35" value="SAN" style="text;html=1;strokeColor=none;fillColor=none;align=center;verticalAlign=middle;whiteSpace=wrap;rounded=0;" parent="1" vertex="1">
          <mxGeometry x="1779" y="497" width="40" height="20" as="geometry" />
        </mxCell>
        <mxCell id="ZslXiAwdW-3EuPROBi18-36" value="SAN" style="text;html=1;strokeColor=none;fillColor=none;align=center;verticalAlign=middle;whiteSpace=wrap;rounded=0;fontStyle=0" parent="1" vertex="1">
          <mxGeometry x="2201" y="497" width="40" height="20" as="geometry" />
        </mxCell>
        <mxCell id="ZslXiAwdW-3EuPROBi18-37" value="SAN" style="text;html=1;strokeColor=none;fillColor=none;align=center;verticalAlign=middle;whiteSpace=wrap;rounded=0;fontStyle=0" parent="1" vertex="1">
          <mxGeometry x="1921" y="507" width="40" height="20" as="geometry" />
        </mxCell>
        <mxCell id="ZslXiAwdW-3EuPROBi18-41" value="" style="rounded=1;whiteSpace=wrap;html=1;strokeColor=#663300;fillColor=none;" parent="1" vertex="1">
          <mxGeometry x="1708.5" y="212" width="606" height="21" as="geometry" />
        </mxCell>
        <mxCell id="ZslXiAwdW-3EuPROBi18-42" value="CORE SWITCHES" style="text;html=1;strokeColor=none;fillColor=none;align=center;verticalAlign=middle;whiteSpace=wrap;rounded=0;" parent="1" vertex="1">
          <mxGeometry x="1896" y="221.5" width="181" height="5" as="geometry" />
        </mxCell>
        <mxCell id="ZslXiAwdW-3EuPROBi18-84" style="edgeStyle=orthogonalEdgeStyle;rounded=0;orthogonalLoop=1;jettySize=auto;html=1;startArrow=classic;startFill=1;endArrow=classic;endFill=1;" parent="1" source="ZslXiAwdW-3EuPROBi18-43" edge="1">
          <mxGeometry relative="1" as="geometry">
            <mxPoint x="2010.6666259765625" y="427.3333740234375" as="targetPoint" />
          </mxGeometry>
        </mxCell>
        <mxCell id="ZslXiAwdW-3EuPROBi18-43" value="" style="shape=cylinder3;whiteSpace=wrap;html=1;boundedLbl=1;backgroundOutline=1;size=15;strokeColor=#663300;fillColor=none;" parent="1" vertex="1">
          <mxGeometry x="1988" y="475" width="74.11" height="58" as="geometry" />
        </mxCell>
        <mxCell id="ZslXiAwdW-3EuPROBi18-85" style="edgeStyle=orthogonalEdgeStyle;rounded=0;orthogonalLoop=1;jettySize=auto;html=1;startArrow=classic;startFill=1;endArrow=classic;endFill=1;" parent="1" source="ZslXiAwdW-3EuPROBi18-44" edge="1">
          <mxGeometry relative="1" as="geometry">
            <mxPoint x="2011.9999389648438" y="427.3333740234375" as="targetPoint" />
            <Array as="points">
              <mxPoint x="2103" y="452" />
              <mxPoint x="2012" y="452" />
            </Array>
          </mxGeometry>
        </mxCell>
        <mxCell id="ZslXiAwdW-3EuPROBi18-44" value="" style="shape=cylinder3;whiteSpace=wrap;html=1;boundedLbl=1;backgroundOutline=1;size=15;strokeColor=#663300;fillColor=none;" parent="1" vertex="1">
          <mxGeometry x="2066" y="475" width="74.11" height="58" as="geometry" />
        </mxCell>
        <mxCell id="ZslXiAwdW-3EuPROBi18-45" value="Tape Lib." style="text;html=1;strokeColor=none;fillColor=none;align=center;verticalAlign=middle;whiteSpace=wrap;rounded=0;" parent="1" vertex="1">
          <mxGeometry x="1998.89" y="507" width="51.11" height="21" as="geometry" />
        </mxCell>
        <mxCell id="ZslXiAwdW-3EuPROBi18-46" value="CommVault" style="text;html=1;strokeColor=none;fillColor=none;align=center;verticalAlign=middle;whiteSpace=wrap;rounded=0;" parent="1" vertex="1">
          <mxGeometry x="2077" y="507" width="51.11" height="21" as="geometry" />
        </mxCell>
        <mxCell id="ZslXiAwdW-3EuPROBi18-68" style="edgeStyle=orthogonalEdgeStyle;rounded=0;orthogonalLoop=1;jettySize=auto;html=1;startArrow=classic;startFill=1;endArrow=classic;endFill=1;" parent="1" source="ZslXiAwdW-3EuPROBi18-47" edge="1">
          <mxGeometry relative="1" as="geometry">
            <mxPoint x="1820.6666259765625" y="144.5" as="targetPoint" />
          </mxGeometry>
        </mxCell>
        <mxCell id="ZslXiAwdW-3EuPROBi18-47" value="" style="aspect=fixed;pointerEvents=1;shadow=0;dashed=0;html=1;strokeColor=none;labelPosition=center;verticalLabelPosition=bottom;verticalAlign=top;align=center;fillColor=#00188D;shape=mxgraph.mscae.enterprise.router" parent="1" vertex="1">
          <mxGeometry x="1729" y="125" width="50" height="39" as="geometry" />
        </mxCell>
        <mxCell id="ZslXiAwdW-3EuPROBi18-48" value="" style="aspect=fixed;perimeter=ellipsePerimeter;html=1;align=center;shadow=0;dashed=0;spacingTop=3;image;image=img/lib/active_directory/firewall.svg;strokeColor=#663300;fillColor=none;" parent="1" vertex="1">
          <mxGeometry x="1966" y="111" width="30.5" height="50" as="geometry" />
        </mxCell>
        <mxCell id="ZslXiAwdW-3EuPROBi18-74" style="edgeStyle=orthogonalEdgeStyle;rounded=0;orthogonalLoop=1;jettySize=auto;html=1;entryX=0.862;entryY=0;entryDx=0;entryDy=0;entryPerimeter=0;startArrow=classic;startFill=1;endArrow=classic;endFill=1;" parent="1" source="ZslXiAwdW-3EuPROBi18-49" target="ZslXiAwdW-3EuPROBi18-41" edge="1">
          <mxGeometry relative="1" as="geometry" />
        </mxCell>
        <mxCell id="ZslXiAwdW-3EuPROBi18-49" value="" style="aspect=fixed;pointerEvents=1;shadow=0;dashed=0;html=1;strokeColor=none;labelPosition=center;verticalLabelPosition=bottom;verticalAlign=top;align=center;fillColor=#00188D;shape=mxgraph.mscae.enterprise.router" parent="1" vertex="1">
          <mxGeometry x="2206" y="128" width="50" height="39" as="geometry" />
        </mxCell>
        <mxCell id="ZslXiAwdW-3EuPROBi18-50" value="" style="aspect=fixed;perimeter=ellipsePerimeter;html=1;align=center;shadow=0;dashed=0;spacingTop=3;image;image=img/lib/active_directory/firewall.svg;strokeColor=#663300;fillColor=none;" parent="1" vertex="1">
          <mxGeometry x="1996.5" y="110" width="30.5" height="50" as="geometry" />
        </mxCell>
        <mxCell id="ZslXiAwdW-3EuPROBi18-51" value="Gamma SIP Router" style="text;html=1;strokeColor=none;fillColor=none;align=center;verticalAlign=middle;whiteSpace=wrap;rounded=0;" parent="1" vertex="1">
          <mxGeometry x="1697.5" y="167" width="113" height="20" as="geometry" />
        </mxCell>
        <mxCell id="ZslXiAwdW-3EuPROBi18-52" value="Firewalls (Fortigate, Meraki)" style="text;html=1;strokeColor=none;fillColor=none;align=center;verticalAlign=middle;whiteSpace=wrap;rounded=0;" parent="1" vertex="1">
          <mxGeometry x="1968.55" y="170" width="151.45" height="20" as="geometry" />
        </mxCell>
        <mxCell id="ZslXiAwdW-3EuPROBi18-53" value="Pulsant MPLS Router" style="text;html=1;strokeColor=none;fillColor=none;align=center;verticalAlign=middle;whiteSpace=wrap;rounded=0;" parent="1" vertex="1">
          <mxGeometry x="2150" y="184" width="120.89" height="20" as="geometry" />
        </mxCell>
        <mxCell id="ZslXiAwdW-3EuPROBi18-67" style="edgeStyle=orthogonalEdgeStyle;rounded=0;orthogonalLoop=1;jettySize=auto;html=1;startArrow=classic;startFill=1;endArrow=classic;endFill=1;" parent="1" source="ZslXiAwdW-3EuPROBi18-54" edge="1">
          <mxGeometry relative="1" as="geometry">
            <mxPoint x="1759" y="133" as="targetPoint" />
          </mxGeometry>
        </mxCell>
        <mxCell id="ZslXiAwdW-3EuPROBi18-54" value="" style="ellipse;shape=cloud;whiteSpace=wrap;html=1;strokeColor=#663300;fillColor=none;" parent="1" vertex="1">
          <mxGeometry x="1699" y="45" width="120" height="49" as="geometry" />
        </mxCell>
        <mxCell id="ZslXiAwdW-3EuPROBi18-71" style="edgeStyle=orthogonalEdgeStyle;rounded=0;orthogonalLoop=1;jettySize=auto;html=1;entryX=0.368;entryY=0.107;entryDx=0;entryDy=0;entryPerimeter=0;startArrow=classic;startFill=1;endArrow=classic;endFill=1;" parent="1" source="ZslXiAwdW-3EuPROBi18-55" target="ZslXiAwdW-3EuPROBi18-65" edge="1">
          <mxGeometry relative="1" as="geometry" />
        </mxCell>
        <mxCell id="ZslXiAwdW-3EuPROBi18-55" value="" style="ellipse;shape=cloud;whiteSpace=wrap;html=1;strokeColor=#663300;fillColor=none;" parent="1" vertex="1">
          <mxGeometry x="1926.5" y="37" width="120" height="39" as="geometry" />
        </mxCell>
        <mxCell id="ZslXiAwdW-3EuPROBi18-72" style="edgeStyle=orthogonalEdgeStyle;rounded=0;orthogonalLoop=1;jettySize=auto;html=1;entryX=0.307;entryY=0.239;entryDx=0;entryDy=0;entryPerimeter=0;startArrow=classic;startFill=1;endArrow=classic;endFill=1;" parent="1" source="ZslXiAwdW-3EuPROBi18-56" target="ZslXiAwdW-3EuPROBi18-49" edge="1">
          <mxGeometry relative="1" as="geometry" />
        </mxCell>
        <mxCell id="ZslXiAwdW-3EuPROBi18-56" value="" style="ellipse;shape=cloud;whiteSpace=wrap;html=1;strokeColor=#663300;fillColor=none;" parent="1" vertex="1">
          <mxGeometry x="2161" y="37" width="120" height="49" as="geometry" />
        </mxCell>
        <mxCell id="ZslXiAwdW-3EuPROBi18-57" value="Internet" style="text;html=1;strokeColor=none;fillColor=none;align=center;verticalAlign=middle;whiteSpace=wrap;rounded=0;" parent="1" vertex="1">
          <mxGeometry x="1970" y="54.5" width="40" height="20" as="geometry" />
        </mxCell>
        <mxCell id="ZslXiAwdW-3EuPROBi18-58" value="Gamma n/w&amp;nbsp;" style="text;html=1;strokeColor=none;fillColor=none;align=center;verticalAlign=middle;whiteSpace=wrap;rounded=0;" parent="1" vertex="1">
          <mxGeometry x="1729" y="62.5" width="76" height="20" as="geometry" />
        </mxCell>
        <mxCell id="ZslXiAwdW-3EuPROBi18-59" value="MPLS Cloud" style="text;html=1;strokeColor=none;fillColor=none;align=center;verticalAlign=middle;whiteSpace=wrap;rounded=0;" parent="1" vertex="1">
          <mxGeometry x="2190" y="51.5" width="76" height="20" as="geometry" />
        </mxCell>
        <mxCell id="ZslXiAwdW-3EuPROBi18-70" style="edgeStyle=orthogonalEdgeStyle;rounded=0;orthogonalLoop=1;jettySize=auto;html=1;entryX=0.233;entryY=-0.032;entryDx=0;entryDy=0;entryPerimeter=0;startArrow=classic;startFill=1;endArrow=classic;endFill=1;" parent="1" source="ZslXiAwdW-3EuPROBi18-61" target="ZslXiAwdW-3EuPROBi18-41" edge="1">
          <mxGeometry relative="1" as="geometry" />
        </mxCell>
        <mxCell id="ZslXiAwdW-3EuPROBi18-61" value="" style="rounded=1;whiteSpace=wrap;html=1;strokeColor=#663300;fillColor=#A9C4EB;" parent="1" vertex="1">
          <mxGeometry x="1820.89" y="117" width="58" height="49" as="geometry" />
        </mxCell>
        <mxCell id="ZslXiAwdW-3EuPROBi18-62" value="Sonus SBC" style="text;html=1;strokeColor=none;fillColor=none;align=center;verticalAlign=middle;whiteSpace=wrap;rounded=0;" parent="1" vertex="1">
          <mxGeometry x="1852.4999999999998" y="164" width="68" height="20" as="geometry" />
        </mxCell>
        <mxCell id="ZslXiAwdW-3EuPROBi18-73" style="edgeStyle=orthogonalEdgeStyle;rounded=0;orthogonalLoop=1;jettySize=auto;html=1;entryX=0.552;entryY=-0.833;entryDx=0;entryDy=0;entryPerimeter=0;startArrow=classic;startFill=1;endArrow=classic;endFill=1;" parent="1" source="ZslXiAwdW-3EuPROBi18-65" target="ZslXiAwdW-3EuPROBi18-42" edge="1">
          <mxGeometry relative="1" as="geometry" />
        </mxCell>
        <mxCell id="ZslXiAwdW-3EuPROBi18-65" value="" style="rounded=0;whiteSpace=wrap;html=1;strokeColor=#663300;fillColor=none;" parent="1" vertex="1">
          <mxGeometry x="1960" y="107" width="72" height="53" as="geometry" />
        </mxCell>
        <mxCell id="ZslXiAwdW-3EuPROBi18-87" value="&lt;b&gt;&lt;font color=&quot;#660000&quot; style=&quot;font-size: 18px&quot;&gt;ONE HOUSING GROUP ARCHITECTURE - Integrated HLD&lt;/font&gt;&lt;/b&gt;" style="text;html=1;strokeColor=none;fillColor=none;align=center;verticalAlign=middle;whiteSpace=wrap;rounded=0;rotation=270;" parent="1" vertex="1">
          <mxGeometry x="896.6399999999996" y="101.5" width="539" height="20" as="geometry" />
        </mxCell>
        <mxCell id="ZslXiAwdW-3EuPROBi18-88" value="" style="rounded=1;whiteSpace=wrap;html=1;strokeColor=#663300;fillColor=none;dashed=1;" parent="1" vertex="1">
          <mxGeometry x="1134.64" y="-144" width="63" height="515" as="geometry" />
        </mxCell>
        <mxCell id="rP1AdKypDYAx6xf0p9CC-1" value="" style="rounded=0;whiteSpace=wrap;html=1;fillColor=none;strokeColor=#000099;" parent="1" vertex="1">
          <mxGeometry x="1260" y="209" width="315" height="30" as="geometry" />
        </mxCell>
        <mxCell id="rP1AdKypDYAx6xf0p9CC-2" value="" style="aspect=fixed;html=1;points=[];align=center;image;fontSize=12;image=img/lib/azure2/compute/Virtual_Machine.svg;fillColor=none;" parent="1" vertex="1">
          <mxGeometry x="1459.37" y="294" width="31.27" height="29" as="geometry" />
        </mxCell>
        <mxCell id="rP1AdKypDYAx6xf0p9CC-3" value="" style="aspect=fixed;html=1;points=[];align=center;image;fontSize=12;image=img/lib/azure2/compute/Virtual_Machine.svg;fillColor=none;" parent="1" vertex="1">
          <mxGeometry x="1513.73" y="296" width="31.27" height="29" as="geometry" />
        </mxCell>
        <mxCell id="rP1AdKypDYAx6xf0p9CC-4" value="" style="aspect=fixed;html=1;points=[];align=center;image;fontSize=12;image=img/lib/azure2/compute/Virtual_Machine.svg;fillColor=none;" parent="1" vertex="1">
          <mxGeometry x="1424.37" y="294" width="31.27" height="29" as="geometry" />
        </mxCell>
        <mxCell id="rP1AdKypDYAx6xf0p9CC-5" value="33 virtual Machines" style="text;html=1;strokeColor=none;fillColor=none;align=center;verticalAlign=middle;whiteSpace=wrap;rounded=0;" parent="1" vertex="1">
          <mxGeometry x="1424.37" y="325" width="120" height="20" as="geometry" />
        </mxCell>
        <mxCell id="rP1AdKypDYAx6xf0p9CC-6" value="&lt;b&gt;&lt;font style=&quot;font-size: 14px&quot;&gt;Test &amp;amp; Dev&lt;/font&gt;&lt;/b&gt;" style="text;html=1;strokeColor=none;fillColor=none;align=center;verticalAlign=middle;whiteSpace=wrap;rounded=0;" parent="1" vertex="1">
          <mxGeometry x="1435.64" y="362" width="100" height="20" as="geometry" />
        </mxCell>
        <mxCell id="rP1AdKypDYAx6xf0p9CC-7" value="" style="rounded=0;whiteSpace=wrap;html=1;fillColor=none;strokeColor=#000099;" parent="1" vertex="1">
          <mxGeometry x="1420" y="280" width="135.92" height="110" as="geometry" />
        </mxCell>
        <mxCell id="rP1AdKypDYAx6xf0p9CC-9" value="PULSANT Cisco ACI N/w" style="text;html=1;strokeColor=none;fillColor=none;align=center;verticalAlign=middle;whiteSpace=wrap;rounded=0;dashed=1;" parent="1" vertex="1">
          <mxGeometry x="1275.92" y="214" width="280" height="20" as="geometry" />
        </mxCell>
        <mxCell id="rP1AdKypDYAx6xf0p9CC-10" value="" style="rounded=0;whiteSpace=wrap;html=1;dashed=1;fillColor=none;strokeColor=#000099;" parent="1" vertex="1">
          <mxGeometry x="1236.56" y="200.5" width="358.73" height="285" as="geometry" />
        </mxCell>
        <mxCell id="rP1AdKypDYAx6xf0p9CC-11" value="&lt;b&gt;&lt;font style=&quot;font-size: 15px&quot;&gt;New PEC Environment&lt;/font&gt;&lt;/b&gt;" style="text;html=1;strokeColor=none;fillColor=none;align=center;verticalAlign=middle;whiteSpace=wrap;rounded=0;" parent="1" vertex="1">
          <mxGeometry x="1318.42" y="417" width="195" height="20" as="geometry" />
        </mxCell>
        <mxCell id="rP1AdKypDYAx6xf0p9CC-13" value="&lt;b&gt;&lt;font style=&quot;font-size: 18px&quot;&gt;PULSANT&lt;/font&gt;&lt;/b&gt;" style="text;html=1;strokeColor=none;fillColor=none;align=center;verticalAlign=middle;whiteSpace=wrap;rounded=0;dashed=1;dashPattern=1 2;" parent="1" vertex="1">
          <mxGeometry x="1320.11" y="450" width="148" height="35" as="geometry" />
        </mxCell>
        <mxCell id="rP1AdKypDYAx6xf0p9CC-14" value="" style="rounded=0;whiteSpace=wrap;html=1;fillColor=none;" parent="1" vertex="1">
          <mxGeometry x="1573.5" y="217.5" width="135" height="9" as="geometry" />
        </mxCell>
        <mxCell id="rP1AdKypDYAx6xf0p9CC-17" value="" style="shape=flexArrow;endArrow=classic;html=1;width=8;endSize=8.78;dashed=1;strokeColor=#000099;" parent="1" edge="1">
          <mxGeometry width="50" height="50" relative="1" as="geometry">
            <mxPoint x="1558.5" y="307" as="sourcePoint" />
            <mxPoint x="1708.5" y="290" as="targetPoint" />
            <Array as="points">
              <mxPoint x="1630" y="290" />
            </Array>
          </mxGeometry>
        </mxCell>
        <mxCell id="rP1AdKypDYAx6xf0p9CC-18" value="Migrate to Pulsant Cloud Via Zerto" style="text;html=1;strokeColor=none;fillColor=none;align=center;verticalAlign=middle;whiteSpace=wrap;rounded=0;dashed=1;" parent="1" vertex="1">
          <mxGeometry x="1575" y="319" width="120" height="20" as="geometry" />
        </mxCell>
        <mxCell id="rP1AdKypDYAx6xf0p9CC-20" value="&lt;font color=&quot;#000099&quot; style=&quot;font-size: 14px&quot;&gt;&lt;b&gt;Zerto&lt;/b&gt;&lt;/font&gt;" style="text;html=1;strokeColor=none;fillColor=none;align=center;verticalAlign=middle;whiteSpace=wrap;rounded=0;dashed=1;" parent="1" vertex="1">
          <mxGeometry x="1629.36" y="266" width="40" height="20" as="geometry" />
        </mxCell>
        <mxCell id="rP1AdKypDYAx6xf0p9CC-23" value="" style="rounded=0;whiteSpace=wrap;html=1;dashed=1;strokeWidth=2;fillColor=none;strokeColor=#1A1A1A;" parent="1" vertex="1">
          <mxGeometry x="1695" y="99.86999999999999" width="667.5" height="470.25" as="geometry" />
        </mxCell>
        <mxCell id="rP1AdKypDYAx6xf0p9CC-24" value="&lt;b&gt;&lt;font style=&quot;font-size: 18px&quot;&gt;OHG&lt;/font&gt;&lt;/b&gt;" style="text;html=1;strokeColor=none;fillColor=none;align=center;verticalAlign=middle;whiteSpace=wrap;rounded=0;dashed=1;dashPattern=1 2;" parent="1" vertex="1">
          <mxGeometry x="1966.0000000000002" y="533" width="148" height="35" as="geometry" />
        </mxCell>
        <mxCell id="rP1AdKypDYAx6xf0p9CC-25" value="" style="aspect=fixed;html=1;points=[];align=center;image;fontSize=12;image=img/lib/azure2/networking/Virtual_Networks.svg;dashed=1;dashPattern=1 2;strokeColor=#000000;strokeWidth=1;fillColor=none;gradientColor=#ffffff;" parent="1" vertex="1">
          <mxGeometry x="2340" y="-10" width="35.18" height="21" as="geometry" />
        </mxCell>
        <mxCell id="rP1AdKypDYAx6xf0p9CC-26" value="" style="aspect=fixed;html=1;points=[];align=center;image;fontSize=12;image=img/lib/azure2/networking/Virtual_Networks.svg;dashed=1;dashPattern=1 2;strokeColor=#000000;strokeWidth=1;fillColor=none;gradientColor=#ffffff;" parent="1" vertex="1">
          <mxGeometry x="2340" y="-210" width="35.18" height="21" as="geometry" />
        </mxCell>
        <mxCell id="rP1AdKypDYAx6xf0p9CC-27" value="" style="rounded=0;whiteSpace=wrap;html=1;dashed=1;dashPattern=1 2;strokeWidth=2;fillColor=none;gradientColor=#ffffff;strokeColor=#3399FF;" parent="1" vertex="1">
          <mxGeometry x="1340" y="-120" width="1022" height="120" as="geometry" />
        </mxCell>
        <mxCell id="rP1AdKypDYAx6xf0p9CC-28" value="" style="aspect=fixed;html=1;points=[];align=center;image;fontSize=12;image=img/lib/azure2/networking/Firewalls.svg;dashed=1;dashPattern=1 2;strokeColor=#3399FF;strokeWidth=2;fillColor=none;gradientColor=#ffffff;" parent="1" vertex="1">
          <mxGeometry x="1582.02" y="-93.01" width="57.98" height="49" as="geometry" />
        </mxCell>
        <mxCell id="rP1AdKypDYAx6xf0p9CC-29" value="" style="aspect=fixed;html=1;points=[];align=center;image;fontSize=12;image=img/lib/azure2/networking/Application_Gateways.svg;dashed=1;dashPattern=1 2;strokeColor=#3399FF;strokeWidth=2;fillColor=none;gradientColor=#ffffff;" parent="1" vertex="1">
          <mxGeometry x="1764.8899999999999" y="-90.5" width="50" height="50" as="geometry" />
        </mxCell>
        <mxCell id="rP1AdKypDYAx6xf0p9CC-30" value="" style="aspect=fixed;html=1;points=[];align=center;image;fontSize=12;image=img/lib/azure2/identity/Azure_AD_Domain_Services.svg;dashed=1;dashPattern=1 2;strokeColor=#3399FF;strokeWidth=2;fillColor=none;gradientColor=#ffffff;" parent="1" vertex="1">
          <mxGeometry x="2002.2700000000002" y="-93.47" width="47" height="42.97" as="geometry" />
        </mxCell>
        <mxCell id="rP1AdKypDYAx6xf0p9CC-31" value="" style="aspect=fixed;html=1;points=[];align=center;image;fontSize=12;image=img/lib/azure2/networking/Virtual_WANs.svg;dashed=1;dashPattern=1 2;strokeColor=#3399FF;strokeWidth=2;fillColor=none;gradientColor=#ffffff;" parent="1" vertex="1">
          <mxGeometry x="1434.77" y="-91.59" width="41.73" height="41.09" as="geometry" />
        </mxCell>
        <mxCell id="rP1AdKypDYAx6xf0p9CC-32" value="" style="verticalLabelPosition=bottom;html=1;verticalAlign=top;align=center;strokeColor=none;fillColor=#00BEF2;shape=mxgraph.azure.computer;pointerEvents=1;dashed=1;dashPattern=1 2;" parent="1" vertex="1">
          <mxGeometry x="2220" y="-90.5" width="30" height="30" as="geometry" />
        </mxCell>
        <mxCell id="rP1AdKypDYAx6xf0p9CC-33" value="Azure VWAN" style="text;html=1;strokeColor=none;fillColor=none;align=center;verticalAlign=middle;whiteSpace=wrap;rounded=0;dashed=1;dashPattern=1 2;" parent="1" vertex="1">
          <mxGeometry x="1418.45" y="-44.01" width="74.36" height="20" as="geometry" />
        </mxCell>
        <mxCell id="rP1AdKypDYAx6xf0p9CC-34" value="Azure Firewall" style="text;html=1;strokeColor=none;fillColor=none;align=center;verticalAlign=middle;whiteSpace=wrap;rounded=0;dashed=1;dashPattern=1 2;" parent="1" vertex="1">
          <mxGeometry x="1570.0000000000002" y="-44.01" width="99.36" height="20" as="geometry" />
        </mxCell>
        <mxCell id="rP1AdKypDYAx6xf0p9CC-35" value="API Gateway" style="text;html=1;strokeColor=none;fillColor=none;align=center;verticalAlign=middle;whiteSpace=wrap;rounded=0;dashed=1;dashPattern=1 2;" parent="1" vertex="1">
          <mxGeometry x="1743.7800000000002" y="-38.40999999999999" width="99.36" height="20" as="geometry" />
        </mxCell>
        <mxCell id="rP1AdKypDYAx6xf0p9CC-36" value="AzureBastionSubnet" style="text;html=1;strokeColor=none;fillColor=none;align=center;verticalAlign=middle;whiteSpace=wrap;rounded=0;dashed=1;dashPattern=1 2;" parent="1" vertex="1">
          <mxGeometry x="2176.3199999999997" y="-51" width="117.36" height="10.5" as="geometry" />
        </mxCell>
        <mxCell id="rP1AdKypDYAx6xf0p9CC-37" value="Domain Controller" style="text;html=1;strokeColor=none;fillColor=none;align=center;verticalAlign=middle;whiteSpace=wrap;rounded=0;dashed=1;dashPattern=1 2;" parent="1" vertex="1">
          <mxGeometry x="1972.27" y="-40.5" width="108.73" height="20" as="geometry" />
        </mxCell>
        <mxCell id="rP1AdKypDYAx6xf0p9CC-39" value="" style="rounded=0;whiteSpace=wrap;html=1;dashed=1;dashPattern=1 2;strokeColor=#3399FF;strokeWidth=2;fillColor=none;gradientColor=#ffffff;" parent="1" vertex="1">
          <mxGeometry x="2060" y="-320" width="300" height="120" as="geometry" />
        </mxCell>
        <mxCell id="rP1AdKypDYAx6xf0p9CC-40" value="" style="aspect=fixed;html=1;points=[];align=center;image;fontSize=12;image=img/lib/azure2/compute/Disks_Classic.svg;dashed=1;dashPattern=1 2;strokeColor=#3399FF;strokeWidth=2;fillColor=none;gradientColor=#ffffff;" parent="1" vertex="1">
          <mxGeometry x="2177.81" y="-258" width="28.92" height="28.41" as="geometry" />
        </mxCell>
        <mxCell id="rP1AdKypDYAx6xf0p9CC-42" value="" style="aspect=fixed;html=1;points=[];align=center;image;fontSize=12;image=img/lib/azure2/compute/Disks_Classic.svg;dashed=1;dashPattern=1 2;strokeColor=#3399FF;strokeWidth=2;fillColor=none;gradientColor=#ffffff;" parent="1" vertex="1">
          <mxGeometry x="2111.19" y="-259" width="28.92" height="28.41" as="geometry" />
        </mxCell>
        <mxCell id="rP1AdKypDYAx6xf0p9CC-43" value="" style="verticalLabelPosition=bottom;html=1;verticalAlign=top;align=center;strokeColor=none;fillColor=#00BEF2;shape=mxgraph.azure.virtual_machine;dashed=1;dashPattern=1 2;" parent="1" vertex="1">
          <mxGeometry x="1574.9999999999995" y="-305.5" width="40" height="30" as="geometry" />
        </mxCell>
        <mxCell id="rP1AdKypDYAx6xf0p9CC-44" value="" style="verticalLabelPosition=bottom;html=1;verticalAlign=top;align=center;strokeColor=none;fillColor=#00BEF2;shape=mxgraph.azure.virtual_machine;dashed=1;dashPattern=1 2;" parent="1" vertex="1">
          <mxGeometry x="2174.8900000000003" y="-305.5" width="40" height="30" as="geometry" />
        </mxCell>
        <mxCell id="rP1AdKypDYAx6xf0p9CC-45" value="" style="verticalLabelPosition=bottom;html=1;verticalAlign=top;align=center;strokeColor=none;fillColor=#00BEF2;shape=mxgraph.azure.virtual_machine;dashed=1;dashPattern=1 2;" parent="1" vertex="1">
          <mxGeometry x="2128.1099999999997" y="-304.5" width="40" height="30" as="geometry" />
        </mxCell>
        <mxCell id="rP1AdKypDYAx6xf0p9CC-46" value="" style="verticalLabelPosition=bottom;html=1;verticalAlign=top;align=center;strokeColor=none;fillColor=#00BEF2;shape=mxgraph.azure.virtual_machine;dashed=1;dashPattern=1 2;" parent="1" vertex="1">
          <mxGeometry x="2077" y="-304.5" width="45" height="30" as="geometry" />
        </mxCell>
        <mxCell id="rP1AdKypDYAx6xf0p9CC-47" value="" style="aspect=fixed;html=1;points=[];align=center;image;fontSize=12;image=img/lib/azure2/compute/Disks_Classic.svg;dashed=1;dashPattern=1 2;strokeColor=#3399FF;strokeWidth=2;fillColor=none;gradientColor=#ffffff;" parent="1" vertex="1">
          <mxGeometry x="2145.97" y="-258" width="28.92" height="28.41" as="geometry" />
        </mxCell>
        <mxCell id="rP1AdKypDYAx6xf0p9CC-48" value="" style="aspect=fixed;html=1;points=[];align=center;image;fontSize=12;image=img/lib/azure2/databases/Azure_SQL_VM.svg;dashed=1;dashPattern=1 2;strokeColor=#3399FF;strokeWidth=2;fillColor=none;gradientColor=#ffffff;" parent="1" vertex="1">
          <mxGeometry x="2260.27" y="-239" width="30.93" height="29" as="geometry" />
        </mxCell>
        <mxCell id="rP1AdKypDYAx6xf0p9CC-49" value="" style="aspect=fixed;html=1;points=[];align=center;image;fontSize=12;image=img/lib/azure2/databases/Azure_SQL_VM.svg;dashed=1;dashPattern=1 2;strokeColor=#3399FF;strokeWidth=2;fillColor=none;gradientColor=#ffffff;" parent="1" vertex="1">
          <mxGeometry x="2317" y="-239.00000000000003" width="30.93" height="29" as="geometry" />
        </mxCell>
        <mxCell id="rP1AdKypDYAx6xf0p9CC-50" value="" style="aspect=fixed;html=1;points=[];align=center;image;fontSize=12;image=img/lib/azure2/databases/Azure_SQL_VM.svg;dashed=1;dashPattern=1 2;strokeColor=#3399FF;strokeWidth=2;fillColor=none;gradientColor=#ffffff;" parent="1" vertex="1">
          <mxGeometry x="2227.53" y="-239" width="30.93" height="29" as="geometry" />
        </mxCell>
        <mxCell id="rP1AdKypDYAx6xf0p9CC-51" value="" style="aspect=fixed;html=1;points=[];align=center;image;fontSize=12;image=img/lib/azure2/migrate/Recovery_Services_Vaults.svg;dashed=1;dashPattern=1 2;strokeColor=#3399FF;strokeWidth=2;fillColor=none;gradientColor=#ffffff;" parent="1" vertex="1">
          <mxGeometry x="2294.0000000000005" y="-314.5" width="46" height="40" as="geometry" />
        </mxCell>
        <mxCell id="rP1AdKypDYAx6xf0p9CC-52" value="" style="aspect=fixed;html=1;points=[];align=center;image;fontSize=12;image=img/lib/azure2/general/Storage_Container.svg;dashed=1;dashPattern=1 2;strokeColor=#3399FF;strokeWidth=2;fillColor=none;gradientColor=#ffffff;" parent="1" vertex="1">
          <mxGeometry x="2232.74" y="-305.5" width="38.15" height="31" as="geometry" />
        </mxCell>
        <mxCell id="rP1AdKypDYAx6xf0p9CC-53" value="&lt;b&gt;&lt;font style=&quot;font-size: 14px&quot;&gt;Test &amp;amp; Dev Subscription&lt;/font&gt;&lt;/b&gt;" style="text;html=1;strokeColor=none;fillColor=none;align=center;verticalAlign=middle;whiteSpace=wrap;rounded=0;dashed=1;dashPattern=1 2;" parent="1" vertex="1">
          <mxGeometry x="2081" y="-341.59" width="185" height="20" as="geometry" />
        </mxCell>
        <mxCell id="rP1AdKypDYAx6xf0p9CC-54" value="" style="aspect=fixed;html=1;points=[];align=center;image;fontSize=12;image=img/lib/azure2/general/Subscriptions.svg;dashed=1;dashPattern=1 2;strokeColor=#3399FF;strokeWidth=2;fillColor=none;gradientColor=#ffffff;" parent="1" vertex="1">
          <mxGeometry x="1340" y="-136" width="18.59" height="30" as="geometry" />
        </mxCell>
        <mxCell id="rP1AdKypDYAx6xf0p9CC-55" value="" style="aspect=fixed;html=1;points=[];align=center;image;fontSize=12;image=img/lib/azure2/general/Subscriptions.svg;dashed=1;dashPattern=1 2;strokeColor=#3399FF;strokeWidth=2;fillColor=none;gradientColor=#ffffff;" parent="1" vertex="1">
          <mxGeometry x="2066" y="-338" width="18.59" height="30" as="geometry" />
        </mxCell>
        <mxCell id="rP1AdKypDYAx6xf0p9CC-56" value="&lt;b&gt;&lt;font style=&quot;font-size: 14px&quot;&gt;Hub Subscription&lt;/font&gt;&lt;/b&gt;" style="text;html=1;strokeColor=none;fillColor=none;align=center;verticalAlign=middle;whiteSpace=wrap;rounded=0;dashed=1;dashPattern=1 2;" parent="1" vertex="1">
          <mxGeometry x="1355" y="-140" width="145" height="20" as="geometry" />
        </mxCell>
        <mxCell id="rP1AdKypDYAx6xf0p9CC-57" value="Virtual Machines" style="text;html=1;strokeColor=none;fillColor=none;align=center;verticalAlign=middle;whiteSpace=wrap;rounded=0;dashed=1;dashPattern=1 2;" parent="1" vertex="1">
          <mxGeometry x="2108.62" y="-278" width="106.27" height="20" as="geometry" />
        </mxCell>
        <mxCell id="rP1AdKypDYAx6xf0p9CC-58" value="VNet Peering" style="text;html=1;strokeColor=none;fillColor=none;align=center;verticalAlign=middle;whiteSpace=wrap;rounded=0;dashed=1;dashPattern=1 2;" parent="1" vertex="1">
          <mxGeometry x="2206.73" y="-153" width="106.27" height="20" as="geometry" />
        </mxCell>
        <mxCell id="rP1AdKypDYAx6xf0p9CC-59" value="storage" style="text;html=1;strokeColor=none;fillColor=none;align=center;verticalAlign=middle;whiteSpace=wrap;rounded=0;dashed=1;dashPattern=1 2;" parent="1" vertex="1">
          <mxGeometry x="2206.73" y="-279" width="106.27" height="20" as="geometry" />
        </mxCell>
        <mxCell id="rP1AdKypDYAx6xf0p9CC-60" value="Disks" style="text;html=1;strokeColor=none;fillColor=none;align=center;verticalAlign=middle;whiteSpace=wrap;rounded=0;dashed=1;dashPattern=1 2;" parent="1" vertex="1">
          <mxGeometry x="2098.5" y="-234.5" width="106.27" height="20" as="geometry" />
        </mxCell>
        <mxCell id="rP1AdKypDYAx6xf0p9CC-137" style="edgeStyle=orthogonalEdgeStyle;rounded=0;orthogonalLoop=1;jettySize=auto;html=1;entryX=0.851;entryY=0.022;entryDx=0;entryDy=0;entryPerimeter=0;dashed=1;startArrow=classic;startFill=1;strokeColor=#000099;strokeWidth=2;" parent="1" source="rP1AdKypDYAx6xf0p9CC-61" target="rP1AdKypDYAx6xf0p9CC-27" edge="1">
          <mxGeometry relative="1" as="geometry" />
        </mxCell>
        <mxCell id="rP1AdKypDYAx6xf0p9CC-61" value="SQL VM" style="text;html=1;strokeColor=none;fillColor=none;align=center;verticalAlign=middle;whiteSpace=wrap;rounded=0;dashed=1;dashPattern=1 2;" parent="1" vertex="1">
          <mxGeometry x="2156.73" y="-221.59" width="106.27" height="20" as="geometry" />
        </mxCell>
        <mxCell id="rP1AdKypDYAx6xf0p9CC-62" value="service recovery vault" style="text;html=1;strokeColor=none;fillColor=none;align=center;verticalAlign=middle;whiteSpace=wrap;rounded=0;dashed=1;dashPattern=1 2;" parent="1" vertex="1">
          <mxGeometry x="2270.89" y="-269.41" width="87" height="20" as="geometry" />
        </mxCell>
        <mxCell id="rP1AdKypDYAx6xf0p9CC-131" style="edgeStyle=orthogonalEdgeStyle;rounded=0;orthogonalLoop=1;jettySize=auto;html=1;entryX=0.43;entryY=-0.002;entryDx=0;entryDy=0;entryPerimeter=0;dashed=1;startArrow=classic;startFill=1;strokeColor=#000099;strokeWidth=2;" parent="1" source="rP1AdKypDYAx6xf0p9CC-63" target="rP1AdKypDYAx6xf0p9CC-10" edge="1">
          <mxGeometry relative="1" as="geometry">
            <Array as="points">
              <mxPoint x="1848" y="40" />
              <mxPoint x="1391" y="40" />
            </Array>
          </mxGeometry>
        </mxCell>
        <mxCell id="rP1AdKypDYAx6xf0p9CC-135" style="edgeStyle=orthogonalEdgeStyle;rounded=0;orthogonalLoop=1;jettySize=auto;html=1;dashed=1;startArrow=classic;startFill=1;strokeColor=#000099;strokeWidth=2;" parent="1" source="rP1AdKypDYAx6xf0p9CC-63" edge="1">
          <mxGeometry relative="1" as="geometry">
            <mxPoint x="1695" y="188" as="targetPoint" />
            <Array as="points">
              <mxPoint x="1848" y="40" />
              <mxPoint x="1560" y="40" />
              <mxPoint x="1560" y="188" />
            </Array>
          </mxGeometry>
        </mxCell>
        <mxCell id="rP1AdKypDYAx6xf0p9CC-63" value="" style="rounded=0;whiteSpace=wrap;html=1;dashed=1;strokeColor=#3399FF;strokeWidth=2;fillColor=none;gradientColor=#ffffff;glass=0;" parent="1" vertex="1">
          <mxGeometry x="1291.27" y="-370" width="1105" height="400" as="geometry" />
        </mxCell>
        <mxCell id="rP1AdKypDYAx6xf0p9CC-74" value="" style="aspect=fixed;html=1;points=[];align=center;image;fontSize=12;image=img/lib/azure2/compute/Virtual_Machine.svg;fillColor=none;" parent="1" vertex="1">
          <mxGeometry x="1260" y="294" width="31.27" height="29" as="geometry" />
        </mxCell>
        <mxCell id="rP1AdKypDYAx6xf0p9CC-76" value="" style="aspect=fixed;html=1;points=[];align=center;image;fontSize=12;image=img/lib/azure2/compute/Virtual_Machine.svg;fillColor=none;" parent="1" vertex="1">
          <mxGeometry x="1301.27" y="294" width="31.27" height="29" as="geometry" />
        </mxCell>
        <mxCell id="rP1AdKypDYAx6xf0p9CC-77" value="" style="aspect=fixed;html=1;points=[];align=center;image;fontSize=12;image=img/lib/azure2/compute/Virtual_Machine.svg;fillColor=none;" parent="1" vertex="1">
          <mxGeometry x="1340" y="294" width="31.27" height="29" as="geometry" />
        </mxCell>
        <mxCell id="rP1AdKypDYAx6xf0p9CC-78" value="158 Virtual Machines" style="text;html=1;strokeColor=none;fillColor=none;align=center;verticalAlign=middle;whiteSpace=wrap;rounded=0;dashed=1;" parent="1" vertex="1">
          <mxGeometry x="1241.27" y="323" width="130" height="20" as="geometry" />
        </mxCell>
        <mxCell id="rP1AdKypDYAx6xf0p9CC-83" value="&lt;b&gt;&lt;font style=&quot;font-size: 14px&quot;&gt;Production&lt;/font&gt;&lt;/b&gt;" style="text;html=1;strokeColor=none;fillColor=none;align=center;verticalAlign=middle;whiteSpace=wrap;rounded=0;" parent="1" vertex="1">
          <mxGeometry x="1266.9" y="366" width="100" height="20" as="geometry" />
        </mxCell>
        <mxCell id="rP1AdKypDYAx6xf0p9CC-86" value="" style="rounded=0;whiteSpace=wrap;html=1;fillColor=none;strokeColor=#000099;" parent="1" vertex="1">
          <mxGeometry x="1249.08" y="280" width="135.92" height="110" as="geometry" />
        </mxCell>
        <mxCell id="rP1AdKypDYAx6xf0p9CC-92" value="" style="aspect=fixed;html=1;points=[];align=center;image;fontSize=12;image=img/lib/azure2/networking/Virtual_Networks.svg;dashed=1;dashPattern=1 2;strokeColor=#000000;strokeWidth=1;fillColor=none;gradientColor=#ffffff;" parent="1" vertex="1">
          <mxGeometry x="2014.82" y="-210" width="35.18" height="21" as="geometry" />
        </mxCell>
        <mxCell id="rP1AdKypDYAx6xf0p9CC-138" style="edgeStyle=orthogonalEdgeStyle;rounded=0;orthogonalLoop=1;jettySize=auto;html=1;entryX=0.52;entryY=0.056;entryDx=0;entryDy=0;entryPerimeter=0;dashed=1;startArrow=classic;startFill=1;strokeColor=#000099;strokeWidth=2;" parent="1" source="rP1AdKypDYAx6xf0p9CC-93" target="rP1AdKypDYAx6xf0p9CC-27" edge="1">
          <mxGeometry relative="1" as="geometry" />
        </mxCell>
        <mxCell id="rP1AdKypDYAx6xf0p9CC-93" value="" style="rounded=0;whiteSpace=wrap;html=1;dashed=1;dashPattern=1 2;strokeColor=#3399FF;strokeWidth=2;fillColor=none;gradientColor=#ffffff;" parent="1" vertex="1">
          <mxGeometry x="1710" y="-319.12" width="322" height="120" as="geometry" />
        </mxCell>
        <mxCell id="rP1AdKypDYAx6xf0p9CC-94" value="" style="aspect=fixed;html=1;points=[];align=center;image;fontSize=12;image=img/lib/azure2/compute/Disks_Classic.svg;dashed=1;dashPattern=1 2;strokeColor=#3399FF;strokeWidth=2;fillColor=none;gradientColor=#ffffff;" parent="1" vertex="1">
          <mxGeometry x="1816.08" y="-250" width="28.92" height="28.41" as="geometry" />
        </mxCell>
        <mxCell id="rP1AdKypDYAx6xf0p9CC-95" value="" style="aspect=fixed;html=1;points=[];align=center;image;fontSize=12;image=img/lib/azure2/compute/Disks_Classic.svg;dashed=1;dashPattern=1 2;strokeColor=#3399FF;strokeWidth=2;fillColor=none;gradientColor=#ffffff;" parent="1" vertex="1">
          <mxGeometry x="1752.54" y="-250" width="28.92" height="28.41" as="geometry" />
        </mxCell>
        <mxCell id="rP1AdKypDYAx6xf0p9CC-96" value="" style="verticalLabelPosition=bottom;html=1;verticalAlign=top;align=center;strokeColor=none;fillColor=#00BEF2;shape=mxgraph.azure.virtual_machine;dashed=1;dashPattern=1 2;" parent="1" vertex="1">
          <mxGeometry x="1831" y="-314.5" width="40" height="30" as="geometry" />
        </mxCell>
        <mxCell id="rP1AdKypDYAx6xf0p9CC-97" value="" style="verticalLabelPosition=bottom;html=1;verticalAlign=top;align=center;strokeColor=none;fillColor=#00BEF2;shape=mxgraph.azure.virtual_machine;dashed=1;dashPattern=1 2;" parent="1" vertex="1">
          <mxGeometry x="1785.84" y="-314.5" width="40" height="30" as="geometry" />
        </mxCell>
        <mxCell id="rP1AdKypDYAx6xf0p9CC-98" value="" style="verticalLabelPosition=bottom;html=1;verticalAlign=top;align=center;strokeColor=none;fillColor=#00BEF2;shape=mxgraph.azure.virtual_machine;dashed=1;dashPattern=1 2;" parent="1" vertex="1">
          <mxGeometry x="1734" y="-314.5" width="45" height="30" as="geometry" />
        </mxCell>
        <mxCell id="rP1AdKypDYAx6xf0p9CC-99" value="" style="aspect=fixed;html=1;points=[];align=center;image;fontSize=12;image=img/lib/azure2/compute/Disks_Classic.svg;dashed=1;dashPattern=1 2;strokeColor=#3399FF;strokeWidth=2;fillColor=none;gradientColor=#ffffff;" parent="1" vertex="1">
          <mxGeometry x="1785.04" y="-250" width="28.92" height="28.41" as="geometry" />
        </mxCell>
        <mxCell id="rP1AdKypDYAx6xf0p9CC-100" value="" style="aspect=fixed;html=1;points=[];align=center;image;fontSize=12;image=img/lib/azure2/databases/Azure_SQL_VM.svg;dashed=1;dashPattern=1 2;strokeColor=#3399FF;strokeWidth=2;fillColor=none;gradientColor=#ffffff;" parent="1" vertex="1">
          <mxGeometry x="1939.0700000000002" y="-243.5" width="30.93" height="29" as="geometry" />
        </mxCell>
        <mxCell id="rP1AdKypDYAx6xf0p9CC-101" value="" style="aspect=fixed;html=1;points=[];align=center;image;fontSize=12;image=img/lib/azure2/databases/Azure_SQL_VM.svg;dashed=1;dashPattern=1 2;strokeColor=#3399FF;strokeWidth=2;fillColor=none;gradientColor=#ffffff;" parent="1" vertex="1">
          <mxGeometry x="1979.07" y="-243.50000000000003" width="30.93" height="29" as="geometry" />
        </mxCell>
        <mxCell id="rP1AdKypDYAx6xf0p9CC-102" value="" style="aspect=fixed;html=1;points=[];align=center;image;fontSize=12;image=img/lib/azure2/databases/Azure_SQL_VM.svg;dashed=1;dashPattern=1 2;strokeColor=#3399FF;strokeWidth=2;fillColor=none;gradientColor=#ffffff;" parent="1" vertex="1">
          <mxGeometry x="1900" y="-243.5" width="30.93" height="29" as="geometry" />
        </mxCell>
        <mxCell id="rP1AdKypDYAx6xf0p9CC-103" value="" style="aspect=fixed;html=1;points=[];align=center;image;fontSize=12;image=img/lib/azure2/migrate/Recovery_Services_Vaults.svg;dashed=1;dashPattern=1 2;strokeColor=#3399FF;strokeWidth=2;fillColor=none;gradientColor=#ffffff;" parent="1" vertex="1">
          <mxGeometry x="1956.2700000000004" y="-314.5" width="46" height="40" as="geometry" />
        </mxCell>
        <mxCell id="rP1AdKypDYAx6xf0p9CC-104" value="" style="aspect=fixed;html=1;points=[];align=center;image;fontSize=12;image=img/lib/azure2/general/Storage_Container.svg;dashed=1;dashPattern=1 2;strokeColor=#3399FF;strokeWidth=2;fillColor=none;gradientColor=#ffffff;" parent="1" vertex="1">
          <mxGeometry x="1882.85" y="-310" width="38.15" height="31" as="geometry" />
        </mxCell>
        <mxCell id="rP1AdKypDYAx6xf0p9CC-105" value="&lt;b&gt;&lt;font style=&quot;font-size: 14px&quot;&gt;Production Subscription&lt;/font&gt;&lt;/b&gt;" style="text;html=1;strokeColor=none;fillColor=none;align=center;verticalAlign=middle;whiteSpace=wrap;rounded=0;dashed=1;dashPattern=1 2;" parent="1" vertex="1">
          <mxGeometry x="1757" y="-340" width="185" height="20" as="geometry" />
        </mxCell>
        <mxCell id="rP1AdKypDYAx6xf0p9CC-106" value="" style="aspect=fixed;html=1;points=[];align=center;image;fontSize=12;image=img/lib/azure2/general/Subscriptions.svg;dashed=1;dashPattern=1 2;strokeColor=#3399FF;strokeWidth=2;fillColor=none;gradientColor=#ffffff;" parent="1" vertex="1">
          <mxGeometry x="1340" y="-335.5" width="18.59" height="30" as="geometry" />
        </mxCell>
        <mxCell id="rP1AdKypDYAx6xf0p9CC-107" value="Virtual Machines" style="text;html=1;strokeColor=none;fillColor=none;align=center;verticalAlign=middle;whiteSpace=wrap;rounded=0;dashed=1;dashPattern=1 2;" parent="1" vertex="1">
          <mxGeometry x="1761" y="-284.5" width="106.27" height="20" as="geometry" />
        </mxCell>
        <mxCell id="rP1AdKypDYAx6xf0p9CC-108" value="storage" style="text;html=1;strokeColor=none;fillColor=none;align=center;verticalAlign=middle;whiteSpace=wrap;rounded=0;dashed=1;dashPattern=1 2;" parent="1" vertex="1">
          <mxGeometry x="1850" y="-279.5" width="106.27" height="20" as="geometry" />
        </mxCell>
        <mxCell id="rP1AdKypDYAx6xf0p9CC-109" value="Disks" style="text;html=1;strokeColor=none;fillColor=none;align=center;verticalAlign=middle;whiteSpace=wrap;rounded=0;dashed=1;dashPattern=1 2;" parent="1" vertex="1">
          <mxGeometry x="1746.36" y="-221.59" width="106.27" height="20" as="geometry" />
        </mxCell>
        <mxCell id="rP1AdKypDYAx6xf0p9CC-110" value="SQL VM" style="text;html=1;strokeColor=none;fillColor=none;align=center;verticalAlign=middle;whiteSpace=wrap;rounded=0;dashed=1;dashPattern=1 2;" parent="1" vertex="1">
          <mxGeometry x="1825.8400000000001" y="-221.59" width="106.27" height="20" as="geometry" />
        </mxCell>
        <mxCell id="rP1AdKypDYAx6xf0p9CC-111" value="service recovery vault" style="text;html=1;strokeColor=none;fillColor=none;align=center;verticalAlign=middle;whiteSpace=wrap;rounded=0;dashed=1;dashPattern=1 2;" parent="1" vertex="1">
          <mxGeometry x="1926.5" y="-269.12" width="93" height="20" as="geometry" />
        </mxCell>
        <mxCell id="rP1AdKypDYAx6xf0p9CC-113" value="VNet Peering" style="text;html=1;strokeColor=none;fillColor=none;align=center;verticalAlign=middle;whiteSpace=wrap;rounded=0;dashed=1;dashPattern=1 2;" parent="1" vertex="1">
          <mxGeometry x="1866" y="-189" width="106.27" height="20" as="geometry" />
        </mxCell>
        <mxCell id="rP1AdKypDYAx6xf0p9CC-115" value="" style="aspect=fixed;html=1;points=[];align=center;image;fontSize=12;image=img/lib/azure2/general/Subscriptions.svg;dashed=1;dashPattern=1 2;strokeColor=#3399FF;strokeWidth=2;fillColor=none;gradientColor=#ffffff;" parent="1" vertex="1">
          <mxGeometry x="1549.9999999999998" y="-334.5" width="18.59" height="30" as="geometry" />
        </mxCell>
        <mxCell id="rP1AdKypDYAx6xf0p9CC-116" value="" style="aspect=fixed;html=1;points=[];align=center;image;fontSize=12;image=img/lib/azure2/general/Subscriptions.svg;dashed=1;dashPattern=1 2;strokeColor=#3399FF;strokeWidth=2;fillColor=none;gradientColor=#ffffff;" parent="1" vertex="1">
          <mxGeometry x="1715.4099999999999" y="-335.5" width="18.59" height="30" as="geometry" />
        </mxCell>
        <mxCell id="rP1AdKypDYAx6xf0p9CC-117" value="&lt;b&gt;&lt;font style=&quot;font-size: 14px&quot;&gt;Data Management Subscription&lt;/font&gt;&lt;/b&gt;" style="text;html=1;strokeColor=none;fillColor=none;align=center;verticalAlign=middle;whiteSpace=wrap;rounded=0;dashed=1;dashPattern=1 2;" parent="1" vertex="1">
          <mxGeometry x="1332.54" y="-354.50000000000006" width="185" height="20" as="geometry" />
        </mxCell>
        <mxCell id="rP1AdKypDYAx6xf0p9CC-118" value="" style="verticalLabelPosition=bottom;html=1;verticalAlign=top;align=center;strokeColor=none;fillColor=#00BEF2;shape=mxgraph.azure.virtual_machine;dashed=1;dashPattern=1 2;" parent="1" vertex="1">
          <mxGeometry x="1599.9999999999995" y="-269" width="40" height="30" as="geometry" />
        </mxCell>
        <mxCell id="rP1AdKypDYAx6xf0p9CC-119" value="" style="verticalLabelPosition=bottom;html=1;verticalAlign=top;align=center;strokeColor=none;fillColor=#00BEF2;shape=mxgraph.azure.virtual_machine;dashed=1;dashPattern=1 2;" parent="1" vertex="1">
          <mxGeometry x="1623.8199999999995" y="-304.5" width="40" height="30" as="geometry" />
        </mxCell>
        <mxCell id="rP1AdKypDYAx6xf0p9CC-122" value="" style="aspect=fixed;html=1;points=[];align=center;image;fontSize=12;image=img/lib/azure2/networking/Virtual_Networks.svg;dashed=1;dashPattern=1 2;strokeColor=#000000;strokeWidth=1;fillColor=none;gradientColor=#ffffff;" parent="1" vertex="1">
          <mxGeometry x="1502.32" y="-210" width="35.18" height="21" as="geometry" />
        </mxCell>
        <mxCell id="rP1AdKypDYAx6xf0p9CC-123" value="" style="aspect=fixed;html=1;points=[];align=center;image;fontSize=12;image=img/lib/azure2/networking/Virtual_Networks.svg;dashed=1;dashPattern=1 2;strokeColor=#000000;strokeWidth=1;fillColor=none;gradientColor=#ffffff;" parent="1" vertex="1">
          <mxGeometry x="1662.32" y="-210" width="35.18" height="21" as="geometry" />
        </mxCell>
        <mxCell id="rP1AdKypDYAx6xf0p9CC-124" value="Virtual Desktops" style="text;html=1;strokeColor=none;fillColor=none;align=center;verticalAlign=middle;whiteSpace=wrap;rounded=0;dashed=1;" parent="1" vertex="1">
          <mxGeometry x="1554.68" y="-241.59" width="130" height="20" as="geometry" />
        </mxCell>
        <mxCell id="rP1AdKypDYAx6xf0p9CC-139" style="edgeStyle=orthogonalEdgeStyle;rounded=0;orthogonalLoop=1;jettySize=auto;html=1;exitX=0.5;exitY=1;exitDx=0;exitDy=0;entryX=0.272;entryY=0.033;entryDx=0;entryDy=0;entryPerimeter=0;dashed=1;startArrow=classic;startFill=1;strokeColor=#000099;strokeWidth=2;" parent="1" source="rP1AdKypDYAx6xf0p9CC-125" target="rP1AdKypDYAx6xf0p9CC-27" edge="1">
          <mxGeometry relative="1" as="geometry" />
        </mxCell>
        <mxCell id="rP1AdKypDYAx6xf0p9CC-125" value="" style="rounded=0;whiteSpace=wrap;html=1;dashed=1;dashPattern=1 2;strokeColor=#3399FF;strokeWidth=2;fillColor=none;gradientColor=#ffffff;" parent="1" vertex="1">
          <mxGeometry x="1550" y="-320" width="134.68" height="120" as="geometry" />
        </mxCell>
        <mxCell id="rP1AdKypDYAx6xf0p9CC-126" value="&lt;b&gt;&lt;font style=&quot;font-size: 14px&quot;&gt;AVD Subscription&lt;/font&gt;&lt;/b&gt;" style="text;html=1;strokeColor=none;fillColor=none;align=center;verticalAlign=middle;whiteSpace=wrap;rounded=0;dashed=1;dashPattern=1 2;" parent="1" vertex="1">
          <mxGeometry x="1536" y="-339.12" width="185" height="20" as="geometry" />
        </mxCell>
        <mxCell id="rP1AdKypDYAx6xf0p9CC-127" value="" style="aspect=fixed;html=1;points=[];align=center;image;fontSize=12;image=img/lib/azure2/databases/Data_Factory.svg;rounded=0;dashed=1;strokeColor=#000099;strokeWidth=2;fillColor=none;" parent="1" vertex="1">
          <mxGeometry x="1366.9" y="-295.75" width="42.5" height="42.5" as="geometry" />
        </mxCell>
        <mxCell id="rP1AdKypDYAx6xf0p9CC-128" value="" style="aspect=fixed;html=1;points=[];align=center;image;fontSize=12;image=img/lib/azure2/databases/SQL_Data_Warehouses.svg;rounded=0;dashed=1;strokeColor=#000099;strokeWidth=2;fillColor=none;" parent="1" vertex="1">
          <mxGeometry x="1434.77" y="-295.75" width="38.89" height="39.5" as="geometry" />
        </mxCell>
        <mxCell id="rP1AdKypDYAx6xf0p9CC-144" style="edgeStyle=orthogonalEdgeStyle;rounded=0;orthogonalLoop=1;jettySize=auto;html=1;entryX=0.087;entryY=0;entryDx=0;entryDy=0;entryPerimeter=0;dashed=1;startArrow=classic;startFill=1;strokeColor=#000099;strokeWidth=2;" parent="1" source="rP1AdKypDYAx6xf0p9CC-129" target="rP1AdKypDYAx6xf0p9CC-27" edge="1">
          <mxGeometry relative="1" as="geometry" />
        </mxCell>
        <mxCell id="rP1AdKypDYAx6xf0p9CC-129" value="" style="rounded=0;whiteSpace=wrap;html=1;dashed=1;dashPattern=1 2;strokeColor=#3399FF;strokeWidth=2;fillColor=none;gradientColor=#ffffff;" parent="1" vertex="1">
          <mxGeometry x="1340" y="-319.41" width="179.68" height="120" as="geometry" />
        </mxCell>
        <mxCell id="rP1AdKypDYAx6xf0p9CC-130" value="&lt;b&gt;&lt;font style=&quot;font-size: 18px&quot; color=&quot;#000099&quot;&gt;AZURE Public Cloud&lt;/font&gt;&lt;/b&gt;" style="text;html=1;strokeColor=none;fillColor=none;align=center;verticalAlign=middle;whiteSpace=wrap;rounded=0;dashed=1;dashPattern=1 2;" parent="1" vertex="1">
          <mxGeometry x="1715.54" y="-5" width="230" height="35" as="geometry" />
        </mxCell>
        <mxCell id="rP1AdKypDYAx6xf0p9CC-136" value="&lt;font style=&quot;font-size: 14px&quot;&gt;Site to Site VPN/ Express Route Connectivity&lt;/font&gt;" style="text;html=1;strokeColor=none;fillColor=none;align=center;verticalAlign=middle;whiteSpace=wrap;rounded=0;dashed=1;dashPattern=1 2;" parent="1" vertex="1">
          <mxGeometry x="1392.5" y="82.5" width="170" height="39" as="geometry" />
        </mxCell>
        <mxCell id="rP1AdKypDYAx6xf0p9CC-140" value="VNet Peering" style="text;html=1;strokeColor=none;fillColor=none;align=center;verticalAlign=middle;whiteSpace=wrap;rounded=0;dashed=1;dashPattern=1 2;" parent="1" vertex="1">
          <mxGeometry x="1609.27" y="-164" width="106.27" height="20" as="geometry" />
        </mxCell>
        <mxCell id="rP1AdKypDYAx6xf0p9CC-141" value="VNet Peering" style="text;html=1;strokeColor=none;fillColor=none;align=center;verticalAlign=middle;whiteSpace=wrap;rounded=0;dashed=1;dashPattern=1 2;" parent="1" vertex="1">
          <mxGeometry x="1421.87" y="-173" width="106.27" height="20" as="geometry" />
        </mxCell>
        <mxCell id="iJAFoSve4weag3v3wX9f-1" value="" style="shape=cylinder3;whiteSpace=wrap;html=1;boundedLbl=1;backgroundOutline=1;size=15;fillColor=#FFFF99;" vertex="1" parent="1">
          <mxGeometry x="2287" y="450" width="60" height="80" as="geometry" />
        </mxCell>
        <mxCell id="iJAFoSve4weag3v3wX9f-2" value="Data&lt;br&gt;Set" style="text;html=1;strokeColor=none;fillColor=none;align=center;verticalAlign=middle;whiteSpace=wrap;rounded=0;fontStyle=0" vertex="1" parent="1">
          <mxGeometry x="2300" y="504" width="40" height="20" as="geometry" />
        </mxCell>
        <mxCell id="iJAFoSve4weag3v3wX9f-3" value="CRM" style="text;html=1;strokeColor=none;fillColor=none;align=center;verticalAlign=middle;whiteSpace=wrap;rounded=0;fontStyle=0" vertex="1" parent="1">
          <mxGeometry x="2300" y="459" width="40" height="20" as="geometry" />
        </mxCell>
      </root>
    </mxGraphModel>
  </diagram>
</mxfile>
